<svg xmlns="http://www.w3.org/2000/svg" viewBox="0 0 646 593">
  <path d="M0 298.277C0.16227 321.559 7.13993 345.327 21.0952 370.555C42.7582 395.621 65.4761 423.689 88.9241 454.433C110.912 483.798 131.682 514.137 151.317 544.963H151.479C158.619 552.101 165.434 558.591 172.088 564.269C193.913 582.683 213.223 592.499 228.233 592.337H229.856C230.586 592.174 231.965 592.175 232.858 592.175C232.858 592.175 419.63 591.282 419.955 591.282L421.902 591.12C436.425 590.958 455.492 580.574 476.668 561.592C498.818 541.556 518.128 520.627 535.897 499.373C536.059 499.049 536.221 498.806 536.465 498.643C555.45 468.223 575.653 438.371 597.073 409.412C602.752 402.111 608.513 394.891 614.03 387.996C614.03 387.996 614.192 387.834 614.354 387.672C617.924 381.425 621.656 375.017 625.064 368.689C639.344 342.731 646.159 318.233 645.997 294.14C645.835 270.21 638.695 246.036 624.172 219.916C606.484 188.766 586.606 158.184 565.106 129.224C531.678 85.4191 501.09 51.4299 473.91 28.3919C452.977 10.4645 434.154 0.811198 419.306 0.16224C418.576 0.16224 417.683 0.16224 416.953 0L229.45 1.46016C228.72 1.46016 224.825 1.13568 224.825 1.13568C210.14 1.13568 190.992 11.519 169.572 30.8255C142.717 55.1615 112.291 89.4751 79.0257 132.55C57.7683 161.672 38.377 192.254 21.4198 223.566C6.97773 249.849 0.00015847 274.185 0.162428 298.115L0 298.277Z" fill="#F9B624"/>
</svg>
